<svg width="33" height="32" viewBox="0 0 33 32" fill="none" xmlns="http://www.w3.org/2000/svg">
<path opacity="0.4" d="M10.5341 27.88C10.4941 27.88 10.4407 27.9067 10.4007 27.9067C7.81406 26.6267 5.7074 24.5067 4.41406 21.92C4.41406 21.88 4.44073 21.8267 4.44073 21.7867C6.0674 22.2667 7.7474 22.6267 9.41406 22.9067C9.7074 24.5867 10.0541 26.2533 10.5341 27.88Z" fill="#292D32"/>
<path opacity="0.4" d="M28.2547 21.9333C26.9347 24.5867 24.7347 26.7333 22.0547 28.0267C22.5614 26.3333 22.988 24.6267 23.268 22.9067C24.948 22.6267 26.6014 22.2667 28.228 21.7867C28.2147 21.84 28.2547 21.8933 28.2547 21.9333Z" fill="#292D32"/>
<path opacity="0.4" d="M28.3614 10.28C26.6814 9.77333 24.988 9.35999 23.268 9.06666C22.988 7.34666 22.5747 5.63999 22.0547 3.97333C24.8147 5.29333 27.0414 7.51999 28.3614 10.28Z" fill="#292D32"/>
<path opacity="0.4" d="M10.5333 4.12002C10.0533 5.74668 9.70664 7.40002 9.42664 9.08002C7.70664 9.34668 5.99997 9.77335 4.30664 10.28C5.59997 7.60002 7.74664 5.40002 10.4 4.08002C10.44 4.08002 10.4933 4.12002 10.5333 4.12002Z" fill="#292D32"/>
<path d="M20.9864 8.78669C17.893 8.44002 14.773 8.44002 11.6797 8.78669C12.013 6.96002 12.4397 5.13335 13.0397 3.37335C13.0664 3.26669 13.053 3.18669 13.0664 3.08002C14.1197 2.82669 15.1997 2.66669 16.333 2.66669C17.453 2.66669 18.5464 2.82669 19.5864 3.08002C19.5997 3.18669 19.5997 3.26669 19.6264 3.37335C20.2264 5.14669 20.653 6.96002 20.9864 8.78669Z" fill="#292D32"/>
<path d="M9.12 20.6533C7.28 20.32 5.46667 19.8933 3.70667 19.2933C3.6 19.2667 3.52 19.28 3.41333 19.2667C3.16 18.2133 3 17.1333 3 16C3 14.88 3.16 13.7867 3.41333 12.7467C3.52 12.7333 3.6 12.7333 3.70667 12.7067C5.48 12.12 7.28 11.68 9.12 11.3467C8.78667 14.44 8.78667 17.56 9.12 20.6533Z" fill="#292D32"/>
<path d="M29.6669 16C29.6669 17.1333 29.5069 18.2133 29.2535 19.2667C29.1469 19.28 29.0669 19.2667 28.9602 19.2933C27.1869 19.88 25.3735 20.32 23.5469 20.6533C23.8935 17.56 23.8935 14.44 23.5469 11.3467C25.3735 11.68 27.2002 12.1067 28.9602 12.7067C29.0669 12.7333 29.1469 12.7467 29.2535 12.7467C29.5069 13.8 29.6669 14.88 29.6669 16Z" fill="#292D32"/>
<path d="M20.9864 23.2133C20.653 25.0533 20.2264 26.8667 19.6264 28.6267C19.5997 28.7333 19.5997 28.8133 19.5864 28.92C18.5464 29.1733 17.453 29.3333 16.333 29.3333C15.1997 29.3333 14.1197 29.1733 13.0664 28.92C13.053 28.8133 13.0664 28.7333 13.0397 28.6267C12.453 26.8533 12.013 25.0533 11.6797 23.2133C13.2264 23.3867 14.773 23.5067 16.333 23.5067C17.893 23.5067 19.453 23.3867 20.9864 23.2133Z" fill="#292D32"/>
<path d="M21.3511 21.0178C18.0163 21.4385 14.6504 21.4385 11.3156 21.0178C10.8948 17.683 10.8948 14.317 11.3156 10.9822C14.6504 10.5615 18.0163 10.5615 21.3511 10.9822C21.7719 14.317 21.7719 17.683 21.3511 21.0178Z" fill="#292D32"/>
</svg>
