<svg width="33" height="32" viewBox="0 0 33 32" fill="none" xmlns="http://www.w3.org/2000/svg">
<path d="M31.0007 29.3333C31.0007 29.88 30.5473 30.3333 30.0007 30.3333H3.33398C2.78732 30.3333 2.33398 29.88 2.33398 29.3333C2.33398 28.7733 2.78732 28.3333 3.33398 28.3333H30.0007C30.5473 28.3333 31.0007 28.7733 31.0007 29.3333Z" fill="#292D32"/>
<path opacity="0.4" d="M28.6682 13.3067V28.3333H4.60156L4.66823 13.2933C4.66823 12.48 5.04156 11.7067 5.6949 11.2L15.0282 3.94671C15.9882 3.18671 17.3482 3.18671 18.3082 3.94671L27.6416 11.2C28.2949 11.7067 28.6682 12.48 28.6682 13.3067Z" fill="#292D32"/>
<path d="M18.668 11H14.668C14.1213 11 13.668 10.5467 13.668 10C13.668 9.45333 14.1213 9 14.668 9H18.668C19.2146 9 19.668 9.45333 19.668 10C19.668 10.5467 19.2146 11 18.668 11Z" fill="#292D32"/>
<path d="M21.3353 14.6667H12.002C10.8953 14.6667 10.002 15.56 10.002 16.6667V29.3334H23.3353V16.6667C23.3353 15.56 22.442 14.6667 21.3353 14.6667ZM15.002 23.6667C15.002 24.2134 14.5486 24.6667 14.002 24.6667C13.4553 24.6667 13.002 24.2134 13.002 23.6667V21.6667C13.002 21.12 13.4553 20.6667 14.002 20.6667C14.5486 20.6667 15.002 21.12 15.002 21.6667V23.6667Z" fill="#292D32"/>
</svg>
