<svg width="33" height="32" viewBox="0 0 33 32" fill="none" xmlns="http://www.w3.org/2000/svg">
<path d="M23.4533 7.28002C23.1369 7.28002 22.8275 7.37386 22.5644 7.54967C22.3013 7.72548 22.0962 7.97536 21.9751 8.26773C21.854 8.56009 21.8223 8.88179 21.8841 9.19216C21.9458 9.50253 22.0982 9.78763 22.322 10.0114C22.5457 10.2352 22.8308 10.3875 23.1412 10.4493C23.4516 10.511 23.7733 10.4793 24.0656 10.3582C24.358 10.2371 24.6079 10.0321 24.7837 9.76893C24.9595 9.50581 25.0533 9.19647 25.0533 8.88002C25.0533 8.45567 24.8848 8.04871 24.5847 7.74865C24.2846 7.44859 23.8777 7.28002 23.4533 7.28002ZM29.5867 10.5067C29.5607 9.40042 29.3535 8.30589 28.9733 7.26669C28.6343 6.37753 28.1066 5.57239 27.4267 4.90669C26.7664 4.22325 25.9594 3.69892 25.0667 3.37335C24.0302 2.98157 22.9345 2.76963 21.8267 2.74669C20.4133 2.66669 19.96 2.66669 16.3333 2.66669C12.7067 2.66669 12.2533 2.66669 10.84 2.74669C9.7322 2.76963 8.63646 2.98157 7.6 3.37335C6.7089 3.70222 5.90258 4.2261 5.24 4.90669C4.55657 5.56692 4.03224 6.37394 3.70667 7.26669C3.31488 8.30314 3.10295 9.39889 3.08 10.5067C3 11.92 3 12.3734 3 16C3 19.6267 3 20.08 3.08 21.4934C3.10295 22.6012 3.31488 23.6969 3.70667 24.7334C4.03224 25.6261 4.55657 26.4331 5.24 27.0934C5.90258 27.7739 6.7089 28.2978 7.6 28.6267C8.63646 29.0185 9.7322 29.2304 10.84 29.2534C12.2533 29.3334 12.7067 29.3334 16.3333 29.3334C19.96 29.3334 20.4133 29.3334 21.8267 29.2534C22.9345 29.2304 24.0302 29.0185 25.0667 28.6267C25.9594 28.3011 26.7664 27.7768 27.4267 27.0934C28.1097 26.4301 28.6378 25.6243 28.9733 24.7334C29.3535 23.6941 29.5607 22.5996 29.5867 21.4934C29.5867 20.08 29.6667 19.6267 29.6667 16C29.6667 12.3734 29.6667 11.92 29.5867 10.5067ZM27.1867 21.3334C27.177 22.1797 27.0237 23.0183 26.7333 23.8134C26.5204 24.3936 26.1785 24.9179 25.7333 25.3467C25.3009 25.7874 24.7776 26.1286 24.2 26.3467C23.4049 26.637 22.5664 26.7903 21.72 26.8C20.3867 26.8667 19.8933 26.88 16.3867 26.88C12.88 26.88 12.3867 26.88 11.0533 26.8C10.1745 26.8165 9.29946 26.6812 8.46667 26.4C7.91438 26.1708 7.41514 25.8304 7 25.4C6.55745 24.9717 6.21979 24.4469 6.01333 23.8667C5.68781 23.0602 5.50726 22.2026 5.48 21.3334C5.48 20 5.4 19.5067 5.4 16C5.4 12.4934 5.4 12 5.48 10.6667C5.48598 9.80143 5.64393 8.94395 5.94667 8.13335C6.1814 7.57057 6.54169 7.0689 7 6.66669C7.40508 6.20824 7.90572 5.84415 8.46667 5.60002C9.2794 5.30674 10.136 5.15346 11 5.14669C12.3333 5.14669 12.8267 5.06669 16.3333 5.06669C19.84 5.06669 20.3333 5.06669 21.6667 5.14669C22.513 5.15639 23.3516 5.30968 24.1467 5.60002C24.7526 5.82489 25.2964 6.19048 25.7333 6.66669C26.1703 7.07626 26.5117 7.577 26.7333 8.13335C27.0297 8.94526 27.1831 9.80239 27.1867 10.6667C27.2533 12 27.2667 12.4934 27.2667 16C27.2667 19.5067 27.2533 20 27.1867 21.3334ZM16.3333 9.16002C14.9811 9.16266 13.6599 9.56605 12.5369 10.3192C11.4138 11.0724 10.5392 12.1416 10.0235 13.3917C9.50785 14.6418 9.3743 16.0166 9.63973 17.3426C9.90515 18.6685 10.5576 19.8861 11.5148 20.8413C12.4719 21.7966 13.6907 22.4467 15.0171 22.7096C16.3436 22.9724 17.7182 22.8362 18.9673 22.3181C20.2164 21.8 21.2838 20.9233 22.0348 19.7987C22.7858 18.6742 23.1867 17.3523 23.1867 16C23.1884 15.1002 23.0123 14.2088 22.6683 13.3773C22.3244 12.5458 21.8194 11.7904 21.1825 11.1548C20.5456 10.5191 19.7893 10.0156 18.9571 9.67326C18.1249 9.33093 17.2332 9.1565 16.3333 9.16002ZM16.3333 20.44C15.4552 20.44 14.5968 20.1796 13.8666 19.6917C13.1364 19.2039 12.5674 18.5104 12.2313 17.6991C11.8953 16.8878 11.8073 15.9951 11.9786 15.1338C12.15 14.2725 12.5728 13.4814 13.1938 12.8605C13.8147 12.2395 14.6059 11.8167 15.4671 11.6453C16.3284 11.474 17.2211 11.5619 18.0324 11.898C18.8438 12.234 19.5372 12.8031 20.0251 13.5333C20.5129 14.2634 20.7733 15.1219 20.7733 16C20.7733 16.5831 20.6585 17.1604 20.4354 17.6991C20.2122 18.2378 19.8852 18.7273 19.4729 19.1396C19.0606 19.5519 18.5711 19.8789 18.0324 20.102C17.4938 20.3252 16.9164 20.44 16.3333 20.44Z" fill="#838280"/>
</svg>
