<svg width="33" height="32" viewBox="0 0 33 32" fill="none" xmlns="http://www.w3.org/2000/svg">
<path d="M23.4533 7.28008C23.1369 7.28008 22.8275 7.37392 22.5644 7.54973C22.3013 7.72554 22.0962 7.97543 21.9751 8.26779C21.854 8.56015 21.8223 8.88186 21.8841 9.19223C21.9458 9.50259 22.0982 9.78769 22.322 10.0115C22.5457 10.2352 22.8308 10.3876 23.1412 10.4493C23.4516 10.5111 23.7733 10.4794 24.0656 10.3583C24.358 10.2372 24.6079 10.0321 24.7837 9.76899C24.9595 9.50588 25.0533 9.19653 25.0533 8.88008C25.0533 8.45573 24.8848 8.04877 24.5847 7.74871C24.2846 7.44865 23.8777 7.28008 23.4533 7.28008ZM29.5867 10.5067C29.5607 9.40048 29.3535 8.30595 28.9733 7.26675C28.6343 6.37759 28.1066 5.57245 27.4267 4.90675C26.7664 4.22332 25.9594 3.69898 25.0667 3.37341C24.0302 2.98163 22.9345 2.76969 21.8267 2.74675C20.4133 2.66675 19.96 2.66675 16.3333 2.66675C12.7067 2.66675 12.2533 2.66675 10.84 2.74675C9.7322 2.76969 8.63646 2.98163 7.6 3.37341C6.7089 3.70228 5.90258 4.22616 5.24 4.90675C4.55657 5.56698 4.03224 6.374 3.70667 7.26675C3.31488 8.30321 3.10295 9.39895 3.08 10.5067C3 11.9201 3 12.3734 3 16.0001C3 19.6267 3 20.0801 3.08 21.4934C3.10295 22.6012 3.31488 23.697 3.70667 24.7334C4.03224 25.6262 4.55657 26.4332 5.24 27.0934C5.90258 27.774 6.7089 28.2979 7.6 28.6267C8.63646 29.0185 9.7322 29.2305 10.84 29.2534C12.2533 29.3334 12.7067 29.3334 16.3333 29.3334C19.96 29.3334 20.4133 29.3334 21.8267 29.2534C22.9345 29.2305 24.0302 29.0185 25.0667 28.6267C25.9594 28.3012 26.7664 27.7768 27.4267 27.0934C28.1097 26.4302 28.6378 25.6243 28.9733 24.7334C29.3535 23.6942 29.5607 22.5997 29.5867 21.4934C29.5867 20.0801 29.6667 19.6267 29.6667 16.0001C29.6667 12.3734 29.6667 11.9201 29.5867 10.5067ZM27.1867 21.3334C27.177 22.1798 27.0237 23.0184 26.7333 23.8134C26.5204 24.3937 26.1785 24.918 25.7333 25.3467C25.3009 25.7874 24.7776 26.1287 24.2 26.3467C23.4049 26.6371 22.5664 26.7904 21.72 26.8001C20.3867 26.8667 19.8933 26.8801 16.3867 26.8801C12.88 26.8801 12.3867 26.8801 11.0533 26.8001C10.1745 26.8165 9.29946 26.6812 8.46667 26.4001C7.91438 26.1708 7.41514 25.8305 7 25.4001C6.55745 24.9717 6.21979 24.447 6.01333 23.8667C5.68781 23.0603 5.50726 22.2027 5.48 21.3334C5.48 20.0001 5.4 19.5067 5.4 16.0001C5.4 12.4934 5.4 12.0001 5.48 10.6667C5.48598 9.80149 5.64393 8.94401 5.94667 8.13341C6.1814 7.57063 6.54169 7.06896 7 6.66675C7.40508 6.20831 7.90572 5.84421 8.46667 5.60008C9.2794 5.30681 10.136 5.15352 11 5.14675C12.3333 5.14675 12.8267 5.06675 16.3333 5.06675C19.84 5.06675 20.3333 5.06675 21.6667 5.14675C22.513 5.15646 23.3516 5.30974 24.1467 5.60008C24.7526 5.82495 25.2964 6.19054 25.7333 6.66675C26.1703 7.07632 26.5117 7.57706 26.7333 8.13341C27.0297 8.94533 27.1831 9.80245 27.1867 10.6667C27.2533 12.0001 27.2667 12.4934 27.2667 16.0001C27.2667 19.5067 27.2533 20.0001 27.1867 21.3334ZM16.3333 9.16008C14.9811 9.16272 13.6599 9.56612 12.5369 10.3193C11.4138 11.0725 10.5392 12.1417 10.0235 13.3918C9.50785 14.6418 9.3743 16.0167 9.63973 17.3427C9.90515 18.6686 10.5576 19.8861 11.5148 20.8414C12.4719 21.7966 13.6907 22.4468 15.0171 22.7096C16.3436 22.9725 17.7182 22.8362 18.9673 22.3181C20.2164 21.8 21.2838 20.9233 22.0348 19.7988C22.7858 18.6742 23.1867 17.3523 23.1867 16.0001C23.1884 15.1002 23.0123 14.2089 22.6683 13.3774C22.3244 12.5458 21.8194 11.7905 21.1825 11.1548C20.5456 10.5191 19.7893 10.0157 18.9571 9.67332C18.1249 9.33099 17.2332 9.15656 16.3333 9.16008ZM16.3333 20.4401C15.4552 20.4401 14.5968 20.1797 13.8666 19.6918C13.1364 19.2039 12.5674 18.5105 12.2313 17.6992C11.8953 16.8879 11.8073 15.9952 11.9786 15.1339C12.15 14.2726 12.5728 13.4815 13.1938 12.8605C13.8147 12.2396 14.6059 11.8167 15.4671 11.6454C16.3284 11.4741 17.2211 11.562 18.0324 11.8981C18.8438 12.2341 19.5372 12.8032 20.0251 13.5333C20.5129 14.2635 20.7733 15.1219 20.7733 16.0001C20.7733 16.5831 20.6585 17.1605 20.4354 17.6992C20.2122 18.2379 19.8852 18.7273 19.4729 19.1396C19.0606 19.5519 18.5711 19.879 18.0324 20.1021C17.4938 20.3252 16.9164 20.4401 16.3333 20.4401Z" fill="white"/>
</svg>
