<svg width="32" height="32" viewBox="0 0 32 32" fill="none" xmlns="http://www.w3.org/2000/svg">
<path d="M27.2928 2.66669H4.70609C4.4522 2.66316 4.2001 2.70969 3.96418 2.8036C3.72827 2.89752 3.51316 3.03698 3.33116 3.21404C3.14915 3.39109 3.0038 3.60227 2.90342 3.8355C2.80303 4.06874 2.74957 4.31946 2.74609 4.57336V27.4267C2.74957 27.6806 2.80303 27.9313 2.90342 28.1645C3.0038 28.3978 3.14915 28.6089 3.33116 28.786C3.51316 28.9631 3.72827 29.1025 3.96418 29.1964C4.2001 29.2904 4.4522 29.3369 4.70609 29.3334H27.2928C27.5467 29.3369 27.7988 29.2904 28.0347 29.1964C28.2706 29.1025 28.4857 28.9631 28.6677 28.786C28.8497 28.6089 28.9951 28.3978 29.0954 28.1645C29.1958 27.9313 29.2493 27.6806 29.2528 27.4267V4.57336C29.2493 4.31946 29.1958 4.06874 29.0954 3.8355C28.9951 3.60227 28.8497 3.39109 28.6677 3.21404C28.4857 3.03698 28.2706 2.89752 28.0347 2.8036C27.7988 2.70969 27.5467 2.66316 27.2928 2.66669ZM10.7861 24.9867H6.78609V12.9867H10.7861V24.9867ZM8.78609 11.3067C8.23444 11.3067 7.70539 11.0875 7.31531 10.6975C6.92524 10.3074 6.70609 9.77834 6.70609 9.22669C6.70609 8.67504 6.92524 8.14598 7.31531 7.75591C7.70539 7.36583 8.23444 7.14669 8.78609 7.14669C9.07902 7.11347 9.37566 7.1425 9.65659 7.23187C9.93753 7.32124 10.1964 7.46894 10.4163 7.66531C10.6362 7.86167 10.8121 8.10226 10.9326 8.37133C11.053 8.6404 11.1153 8.93188 11.1153 9.22669C11.1153 9.52149 11.053 9.81298 10.9326 10.082C10.8121 10.3511 10.6362 10.5917 10.4163 10.7881C10.1964 10.9844 9.93753 11.1321 9.65659 11.2215C9.37566 11.3109 9.07902 11.3399 8.78609 11.3067ZM25.2128 24.9867H21.2128V18.5467C21.2128 16.9334 20.6394 15.88 19.1861 15.88C18.7363 15.8833 18.2983 16.0244 17.9312 16.2843C17.5641 16.5441 17.2854 16.9103 17.1328 17.3334C17.0284 17.6467 16.9832 17.9768 16.9994 18.3067V24.9734H12.9994V12.9734H16.9994V14.6667C17.3628 14.0362 17.8913 13.5167 18.528 13.1643C19.1647 12.8119 19.8855 12.6398 20.6128 12.6667C23.2794 12.6667 25.2128 14.3867 25.2128 18.08V24.9867Z" fill="#838280"/>
</svg>
