<svg width="33" height="32" viewBox="0 0 33 32" fill="none" xmlns="http://www.w3.org/2000/svg">
<path d="M29.9987 7.73337C28.9965 8.16816 27.9366 8.45559 26.852 8.5867C27.9963 7.90313 28.8537 6.82775 29.2654 5.56004C28.1901 6.20012 27.013 6.6511 25.7854 6.89337C24.9648 6.00346 23.872 5.4111 22.6784 5.20917C21.4849 5.00724 20.2581 5.20718 19.1904 5.77762C18.1227 6.34806 17.2746 7.25674 16.779 8.36115C16.2834 9.46556 16.1684 10.7032 16.452 11.88C14.2779 11.7701 12.1513 11.204 10.2102 10.2185C8.26919 9.23306 6.55716 7.85029 5.18536 6.16004C4.70421 7.00026 4.45139 7.9518 4.45203 8.92004C4.45032 9.81921 4.67099 10.7049 5.09437 11.4981C5.51776 12.2914 6.13072 12.9676 6.8787 13.4667C6.00933 13.443 5.15855 13.2098 4.3987 12.7867V12.8534C4.40521 14.1132 4.84669 15.3322 5.64845 16.304C6.45021 17.2758 7.56304 17.9409 8.7987 18.1867C8.32304 18.3315 7.8292 18.4078 7.33203 18.4134C6.98788 18.4093 6.64459 18.3781 6.30536 18.32C6.65724 19.4038 7.33819 20.3509 8.25346 21.0296C9.16873 21.7083 10.2728 22.0848 11.412 22.1067C9.4883 23.6204 7.11321 24.4465 4.66536 24.4534C4.21968 24.4548 3.77435 24.4281 3.33203 24.3734C5.83127 25.987 8.74378 26.8437 11.7187 26.84C13.7716 26.8614 15.8082 26.4734 17.7095 25.6988C19.6108 24.9242 21.3387 23.7785 22.7923 22.3287C24.2459 20.8788 25.396 19.1539 26.1754 17.2546C26.9549 15.3553 27.3481 13.3197 27.332 11.2667V10.56C28.3783 9.77978 29.2807 8.82327 29.9987 7.73337Z" fill="white"/>
</svg>
