<svg width="33" height="32" viewBox="0 0 33 32" fill="none" xmlns="http://www.w3.org/2000/svg">
<path d="M29.9987 7.73331C28.9965 8.1681 27.9366 8.45553 26.852 8.58664C27.9963 7.90307 28.8537 6.82768 29.2654 5.55997C28.1901 6.20006 27.013 6.65104 25.7854 6.89331C24.9648 6.0034 23.872 5.41104 22.6784 5.20911C21.4849 5.00718 20.2581 5.20712 19.1904 5.77756C18.1227 6.348 17.2746 7.25668 16.779 8.36109C16.2834 9.4655 16.1684 10.7032 16.452 11.88C14.2779 11.77 12.1513 11.2039 10.2102 10.2185C8.26919 9.233 6.55716 7.85023 5.18536 6.15997C4.70421 7.0002 4.45139 7.95174 4.45203 8.91997C4.45032 9.81915 4.67099 10.7048 5.09437 11.4981C5.51776 12.2913 6.13072 12.9676 6.8787 13.4666C6.00933 13.443 5.15855 13.2097 4.3987 12.7866V12.8533C4.40521 14.1132 4.84669 15.3321 5.64845 16.3039C6.45021 17.2758 7.56304 17.9408 8.7987 18.1866C8.32304 18.3314 7.8292 18.4077 7.33203 18.4133C6.98788 18.4093 6.64459 18.3781 6.30536 18.32C6.65724 19.4037 7.33819 20.3508 8.25346 21.0295C9.16873 21.7082 10.2728 22.0847 11.412 22.1066C9.4883 23.6203 7.11321 24.4464 4.66536 24.4533C4.21968 24.4548 3.77435 24.428 3.33203 24.3733C5.83127 25.987 8.74378 26.8436 11.7187 26.84C13.7716 26.8613 15.8082 26.4733 17.7095 25.6987C19.6108 24.9242 21.3387 23.7785 22.7923 22.3286C24.2459 20.8788 25.396 19.1538 26.1754 17.2545C26.9549 15.3552 27.3481 13.3196 27.332 11.2666V10.56C28.3783 9.77972 29.2807 8.82321 29.9987 7.73331Z" fill="#838280"/>
</svg>
